<svg version="1.2" baseProfile="tiny-ps" xmlns="http://www.w3.org/2000/svg" viewBox="0 0 148 25" width="148" height="25">
	<title>logo-bookmark-svg</title>
	<style>
		tspan { white-space:pre }
		.shp0 { fill: #ffffff } 
		.shp1 { fill: #5267df } 
	</style>
	<g id="Layer">
		<path id="Layer" fill-rule="evenodd" class="shp0" d="M37 6.3L42.23 6.3C42.97 6.3 43.66 6.45 44.29 6.77C44.92 7.08 45.41 7.5 45.77 8.04C46.13 8.57 46.32 9.16 46.32 9.79C46.32 10.46 46.15 11.04 45.82 11.54C45.49 12.03 45.06 12.4 44.52 12.66L44.52 12.81C45.22 13.06 45.77 13.46 46.18 14C46.59 14.54 46.8 15.19 46.8 15.95C46.8 16.68 46.6 17.33 46.21 17.9C46.11 18.04 46 18.18 45.89 18.31C45.77 18.43 45.64 18.55 45.51 18.66C45.37 18.77 45.23 18.87 45.09 18.96C44.94 19.06 44.78 19.14 44.63 19.21C43.96 19.51 43.22 19.66 42.41 19.66L37 19.66L37 6.3ZM43.36 11.29C43.69 10.99 43.85 10.6 43.85 10.14C43.85 9.7 43.69 9.32 43.38 9.01C43.06 8.71 42.64 8.56 42.12 8.56L39.52 8.56L39.52 11.75L42.04 11.75C42.59 11.75 43.03 11.6 43.36 11.29ZM43.75 16.89C44.09 16.58 44.26 16.16 44.26 15.65C44.26 15.14 44.09 14.72 43.74 14.4C43.39 14.08 42.89 13.92 42.24 13.92L39.52 13.92L39.52 17.37L42.32 17.37C42.93 17.37 43.41 17.21 43.75 16.89ZM55.25 19.96C53.94 19.96 52.76 19.66 51.69 19.04C51.43 18.89 51.18 18.72 50.94 18.54C50.7 18.36 50.48 18.16 50.26 17.94C50.05 17.73 49.86 17.5 49.67 17.26C49.49 17.02 49.33 16.77 49.18 16.51C48.57 15.44 48.27 14.26 48.27 12.98C48.27 11.7 48.57 10.52 49.18 9.45C49.33 9.19 49.49 8.94 49.67 8.7C49.86 8.46 50.05 8.23 50.26 8.02C50.48 7.81 50.7 7.61 50.94 7.42C51.18 7.24 51.43 7.07 51.69 6.92C52.76 6.31 53.94 6 55.25 6C56.55 6 57.74 6.31 58.8 6.92C59.06 7.07 59.32 7.24 59.55 7.42C59.79 7.61 60.02 7.81 60.23 8.02C60.44 8.23 60.64 8.46 60.82 8.7C61 8.94 61.17 9.19 61.31 9.45C61.92 10.52 62.23 11.7 62.23 12.98C62.23 14.26 61.92 15.44 61.31 16.51C61.17 16.77 61 17.02 60.82 17.26C60.64 17.5 60.44 17.73 60.23 17.94C60.02 18.16 59.79 18.36 59.55 18.54C59.32 18.72 59.06 18.89 58.8 19.04C57.74 19.66 56.55 19.96 55.25 19.96L55.25 19.96ZM55.84 17.54C56.03 17.52 56.22 17.48 56.41 17.43C56.6 17.38 56.79 17.32 56.97 17.25C57.16 17.18 57.33 17.09 57.51 17C57.67 16.9 57.84 16.79 57.99 16.68C58.14 16.56 58.29 16.43 58.43 16.3C58.56 16.16 58.69 16.01 58.81 15.86C58.92 15.7 59.03 15.54 59.12 15.37C59.51 14.67 59.71 13.88 59.71 12.98C59.71 12.08 59.51 11.29 59.12 10.59C59.03 10.42 58.92 10.26 58.81 10.11C58.69 9.95 58.56 9.8 58.43 9.67C58.29 9.53 58.14 9.4 57.99 9.29C57.84 9.17 57.67 9.06 57.5 8.97C57.33 8.87 57.16 8.79 56.97 8.71C56.79 8.64 56.6 8.58 56.41 8.53C56.22 8.48 56.03 8.45 55.84 8.42C55.64 8.4 55.44 8.39 55.25 8.39C55.05 8.39 54.86 8.4 54.66 8.42C54.47 8.44 54.27 8.48 54.08 8.53C53.89 8.58 53.71 8.64 53.53 8.71C53.34 8.79 53.17 8.87 53 8.97C52.83 9.06 52.67 9.17 52.52 9.29C52.36 9.4 52.22 9.53 52.08 9.67C51.95 9.81 51.82 9.95 51.71 10.11C51.59 10.26 51.49 10.42 51.39 10.59C51 11.29 50.8 12.09 50.8 12.98C50.8 13.88 51 14.67 51.39 15.37C51.49 15.54 51.59 15.7 51.71 15.86C51.82 16.01 51.95 16.16 52.08 16.29C52.22 16.43 52.36 16.56 52.52 16.68C52.67 16.79 52.83 16.9 53 17C53.17 17.09 53.34 17.18 53.53 17.25C53.71 17.32 53.89 17.38 54.08 17.43C54.27 17.48 54.47 17.52 54.66 17.54C54.86 17.56 55.05 17.58 55.25 17.57C55.44 17.58 55.64 17.56 55.84 17.54ZM67.04 19.04C66.78 18.89 66.53 18.72 66.29 18.54C66.06 18.36 65.83 18.16 65.62 17.94C65.41 17.73 65.21 17.5 65.03 17.26C64.85 17.02 64.68 16.77 64.53 16.51C63.92 15.44 63.62 14.26 63.62 12.98C63.62 11.7 63.92 10.52 64.53 9.45C64.68 9.19 64.85 8.94 65.03 8.7C65.21 8.46 65.41 8.23 65.62 8.02C65.83 7.81 66.06 7.61 66.29 7.42C66.53 7.24 66.78 7.07 67.04 6.92C68.11 6.31 69.29 6 70.6 6C71.91 6 73.09 6.31 74.16 6.92C74.42 7.07 74.67 7.24 74.91 7.42C75.14 7.61 75.37 7.81 75.58 8.02C75.79 8.23 75.99 8.46 76.17 8.7C76.35 8.94 76.52 9.19 76.67 9.45C77.28 10.52 77.58 11.7 77.58 12.98C77.58 14.26 77.28 15.44 76.67 16.51C76.52 16.77 76.35 17.02 76.17 17.26C75.99 17.5 75.79 17.73 75.58 17.94C75.37 18.16 75.14 18.36 74.91 18.54C74.67 18.72 74.42 18.89 74.16 19.04C73.09 19.66 71.91 19.96 70.6 19.96C69.29 19.96 68.11 19.66 67.04 19.04ZM71.19 17.54C71.38 17.52 71.58 17.48 71.77 17.43C71.96 17.38 72.14 17.32 72.33 17.25C72.51 17.18 72.69 17.09 72.86 16.99C73.03 16.9 73.19 16.79 73.34 16.68C73.5 16.56 73.64 16.43 73.78 16.3C73.92 16.16 74.04 16.01 74.16 15.86C74.27 15.7 74.38 15.54 74.47 15.37C74.86 14.67 75.06 13.88 75.06 12.98C75.06 12.08 74.86 11.29 74.47 10.59C74.38 10.42 74.27 10.26 74.16 10.11C74.04 9.95 73.92 9.8 73.78 9.67C73.64 9.53 73.5 9.4 73.34 9.29C73.19 9.17 73.03 9.06 72.86 8.97C72.69 8.87 72.51 8.79 72.33 8.71C72.15 8.64 71.96 8.58 71.77 8.53C71.58 8.48 71.38 8.45 71.19 8.42C70.99 8.4 70.8 8.39 70.6 8.39C70.4 8.39 70.21 8.4 70.01 8.42C69.82 8.44 69.63 8.48 69.44 8.53C69.25 8.58 69.06 8.64 68.88 8.71C68.7 8.79 68.52 8.87 68.35 8.97C68.18 9.06 68.02 9.17 67.87 9.29C67.72 9.4 67.57 9.53 67.43 9.67C67.3 9.81 67.17 9.95 67.06 10.11C66.94 10.26 66.84 10.42 66.74 10.59C66.35 11.29 66.16 12.09 66.16 12.98C66.16 13.88 66.35 14.67 66.74 15.37C66.84 15.54 66.94 15.7 67.06 15.86C67.17 16.01 67.3 16.16 67.44 16.29C67.57 16.43 67.72 16.56 67.87 16.68C68.02 16.79 68.18 16.9 68.35 16.99C68.52 17.09 68.7 17.18 68.88 17.25C69.06 17.32 69.25 17.38 69.44 17.43C69.63 17.48 69.82 17.52 70.01 17.54C70.21 17.56 70.4 17.58 70.6 17.57C70.8 17.58 70.99 17.56 71.19 17.54ZM79.83 6.3L79.83 6.3L79.83 6.3L79.83 6.3ZM82.35 6.3L82.35 12.03L82.5 12.03L87.39 6.3L90.43 6.3L90.43 6.45L85.6 11.97L90.94 19.52L90.94 19.66L87.86 19.66L83.86 13.97L82.35 15.74L82.35 19.66L79.83 19.66L79.83 6.3L82.35 6.3ZM97.03 6L100.57 15.39L100.72 15.39L104.27 6L107.53 6L107.53 19.37L105.03 19.37L105.03 12.78L105.18 10.56L105.03 10.56L101.64 19.37L99.68 19.37L96.26 10.56L96.11 10.56L96.26 12.78L96.26 19.37L93.78 19.37L93.78 6L97.03 6ZM114.58 6L117.47 6L122.49 19.37L119.71 19.37L118.59 16.17L113.48 16.17L112.36 19.37L109.58 19.37L114.58 6ZM117.77 13.86L116.6 10.5L116.11 8.89L115.96 8.89L115.48 10.5L114.28 13.86L117.77 13.86ZM124.55 6L129.43 6C130.3 6 131.07 6.18 131.75 6.54C132.43 6.9 132.95 7.4 133.33 8.04C133.7 8.68 133.89 9.41 133.89 10.22C133.89 11.08 133.62 11.84 133.07 12.51C132.94 12.67 132.8 12.82 132.64 12.97C132.49 13.11 132.32 13.25 132.15 13.37C131.98 13.49 131.8 13.6 131.61 13.7C131.42 13.8 131.23 13.88 131.03 13.95L131.01 14.08L134.6 19.22L134.6 19.37L131.7 19.37L128.25 14.34L127.07 14.34L127.07 19.36L124.55 19.36L124.55 6ZM129.41 12.03C129.98 12.03 130.45 11.86 130.81 11.51C131.17 11.16 131.35 10.72 131.35 10.18C131.35 9.67 131.18 9.24 130.83 8.88C130.49 8.51 130.03 8.33 129.44 8.33L127.07 8.33L127.07 12.03L129.41 12.03L129.41 12.03ZM139.16 6L139.16 11.73L139.31 11.73L144.2 6L147.24 6L147.24 6.15L142.4 11.68L147.74 19.22L147.74 19.37L144.66 19.37L140.67 13.67L139.16 15.45L139.16 19.37L136.64 19.37L136.64 6L139.16 6Z" />
		<g id="Layer">
			<path id="Layer" class="shp1" d="M12.5 25C5.59 25 0 19.41 0 12.5C0 5.59 5.59 0 12.5 0C19.41 0 25 5.59 25 12.5C25 19.41 19.41 25 12.5 25Z" />
			<path id="Layer" fill-rule="evenodd" class="shp0" d="M9 9L9 19L12.54 15.56L16.08 19L16.08 9C16.08 8.74 16.03 8.48 15.93 8.23C15.83 7.99 15.68 7.77 15.49 7.59C15.31 7.4 15.09 7.25 14.84 7.15C14.6 7.05 14.34 7 14.08 7L11 7C10.74 7 10.48 7.05 10.23 7.15C9.99 7.25 9.77 7.4 9.59 7.59C9.4 7.77 9.25 7.99 9.15 8.23C9.05 8.48 9 8.74 9 9Z" />
		</g>
	</g>
</svg>